<?xml version="1.0" encoding="utf-8"?>
<!-- Generator: Adobe Illustrator 26.5.0, SVG Export Plug-In . SVG Version: 6.00 Build 0)  -->
<svg version="1.1" id="Layer_1" xmlns="http://www.w3.org/2000/svg" xmlns:xlink="http://www.w3.org/1999/xlink" x="0px" y="0px"
	 viewBox="0 0 193 52" style="enable-background:new 0 0 193 52;" xml:space="preserve">
<style type="text/css">
	.st0{clip-path:url(#SVGID_00000028321146639060884210000009154175128595508668_);}
	.st1{clip-path:url(#SVGID_00000030460013639894885870000014415731858215828916_);}
	.st2{fill:#FFFFFF;}
</style>
<g>
	<g>
		<defs>
			<rect id="SVGID_1_" y="0" width="193" height="52"/>
		</defs>
		<clipPath id="SVGID_00000174567958979545163840000010349398894325489038_">
			<use xlink:href="#SVGID_1_"  style="overflow:visible;"/>
		</clipPath>
		<g style="clip-path:url(#SVGID_00000174567958979545163840000010349398894325489038_);">
			<g>
				<g>
					<defs>
						
							<rect id="SVGID_00000059281932453721552430000003172068109635249810_" x="2" y="-2" transform="matrix(0.7071 -0.7071 0.7071 0.7071 -8.7697 26.8281)" width="52" height="52"/>
					</defs>
					<clipPath id="SVGID_00000145760920135827810320000003157045761139345538_">
						<use xlink:href="#SVGID_00000059281932453721552430000003172068109635249810_"  style="overflow:visible;"/>
					</clipPath>
					<g style="clip-path:url(#SVGID_00000145760920135827810320000003157045761139345538_);">
						<path class="st2" d="M38,43.9l-2,1.9c-0.2,0.2-0.4,0.3-0.7,0.4c-0.3,0.1-0.5,0.1-0.8,0S34,46,33.8,45.8s-0.4-0.4-0.5-0.7
							l-5.6-14.8l-7.1,6.8l0.5,5.6c0.1,1.1,0,1.7-1,2.7L19,46.8c-0.2,0.2-0.4,0.4-0.7,0.5c-0.3,0.1-0.6,0.1-0.8,0.1
							c-0.4-0.1-1-0.3-1.4-1l-3.7-6.5c0,0-0.1-0.1-0.1-0.2l0,0c-0.1,0-0.1,0-0.2-0.1l-6.6-3.7c-0.7-0.4-0.9-0.9-1-1.3
							c0-0.3,0-0.5,0.1-0.8s0.2-0.5,0.4-0.7l1.4-1.4c0.7-0.7,1.8-1.1,2.7-1l5.5,0.5l6.9-7.1L6.7,18.6c-0.3-0.1-0.5-0.3-0.7-0.5
							s-0.3-0.5-0.4-0.7c-0.1-0.3,0-0.5,0-0.8C5.8,16.4,6,16.1,6.2,16l1.9-2c0.3-0.3,0.6-0.5,1-0.6s0.7-0.2,1.1-0.1l19.9,1.9l4-4.3
							c0.3-0.3,1.1-1.2,1.3-1.4c4-4,7.6-5,9.8-2.9c0.7,0.7,1.7,2.2,0.7,4.8c-0.6,1.5-1.8,3.2-3.5,5c-0.2,0.2-1,1-1.4,1.3l-4.3,4
							l1.9,19.9c0,0.4,0,0.8-0.1,1.1C38.4,43.3,38.2,43.6,38,43.9L38,43.9z"/>
					</g>
				</g>
			</g>
		</g>
		<g style="clip-path:url(#SVGID_00000174567958979545163840000010349398894325489038_);">
			<g>
				<path class="st2" d="M69.4,15.6v4.8h-6.5v19.8h-6V20.4h-6.5v-4.8H69.4z"/>
				<path class="st2" d="M77.6,38.8c-1.9-1.1-3.5-2.6-4.6-4.5c-1.1-1.9-1.7-4.1-1.7-6.5c0-2.4,0.6-4.6,1.7-6.5
					c1.1-1.9,2.7-3.4,4.6-4.5s4-1.6,6.4-1.6s4.4,0.5,6.4,1.6c1.9,1.1,3.4,2.6,4.5,4.5c1.1,1.9,1.7,4.1,1.7,6.5
					c0,2.4-0.6,4.6-1.7,6.5c-1.1,1.9-2.6,3.4-4.5,4.5c-1.9,1.1-4,1.6-6.3,1.6S79.6,39.9,77.6,38.8z M88.7,33c1.2-1.3,1.8-3,1.8-5.2
					c0-2.2-0.6-3.9-1.8-5.2c-1.2-1.3-2.7-1.9-4.7-1.9c-2,0-3.6,0.6-4.7,1.9c-1.2,1.3-1.8,3-1.8,5.2c0,2.2,0.6,3.9,1.8,5.2
					S82,35,84,35C85.9,35,87.5,34.3,88.7,33z"/>
				<path class="st2" d="M105.8,15.6v14.7c0,1.5,0.4,2.6,1.1,3.4c0.7,0.8,1.8,1.2,3.2,1.2s2.5-0.4,3.2-1.2s1.1-1.9,1.1-3.4V15.6h6
					v14.7c0,2.2-0.5,4-1.4,5.6c-0.9,1.5-2.2,2.7-3.8,3.4c-1.6,0.8-3.3,1.2-5.3,1.2s-3.7-0.4-5.2-1.1c-1.5-0.8-2.7-1.9-3.6-3.4
					c-0.9-1.5-1.3-3.4-1.3-5.6V15.6H105.8z"/>
				<path class="st2" d="M137.1,40.2l-5.1-9.3h-1.4v9.3h-6V15.6h10c1.9,0,3.6,0.3,5,1s2.4,1.6,3.1,2.8c0.7,1.2,1,2.5,1,3.9
					c0,1.6-0.5,3.1-1.4,4.4c-0.9,1.3-2.3,2.2-4.1,2.7l5.7,9.7H137.1z M130.5,26.7h3.7c1.1,0,1.9-0.3,2.5-0.8
					c0.5-0.5,0.8-1.3,0.8-2.3c0-0.9-0.3-1.7-0.8-2.2c-0.5-0.5-1.4-0.8-2.5-0.8h-3.7V26.7z"/>
				<path class="st2" d="M147.6,39.5c-0.7-0.6-1-1.4-1-2.3c0-0.9,0.3-1.7,1-2.3s1.5-0.9,2.6-0.9c1,0,1.9,0.3,2.5,0.9s1,1.4,1,2.3
					c0,0.9-0.3,1.7-1,2.3s-1.5,0.9-2.5,0.9C149.1,40.5,148.3,40.2,147.6,39.5z"/>
				<path class="st2" d="M163.2,15.6v24.6h-6V15.6H163.2z"/>
				<path class="st2" d="M183.6,17.2c1.9,1,3.4,2.5,4.5,4.3c1.1,1.9,1.6,4,1.6,6.4c0,2.4-0.5,4.5-1.6,6.4c-1.1,1.9-2.6,3.3-4.5,4.3
					c-1.9,1-4.2,1.5-6.8,1.5h-9.2V15.6h9.2C179.4,15.6,181.6,16.1,183.6,17.2z M181.7,33.1c1.3-1.2,1.9-3,1.9-5.2
					c0-2.3-0.6-4-1.9-5.3c-1.3-1.3-3-1.9-5.3-1.9h-2.8V35h2.8C178.6,35,180.4,34.4,181.7,33.1z"/>
			</g>
		</g>
	</g>
</g>
</svg>
